<mxfile host="app.diagrams.net" modified="2021-12-26T12:42:16.139Z" agent="5.0 (Windows NT 10.0; Win64; x64) AppleWebKit/537.36 (KHTML, like Gecko) Chrome/96.0.4664.110 Safari/537.36" etag="nkWIalWYuXcxXzdWP1c0" version="16.0.0" type="github" pages="2">
  <diagram id="37G50IrKv5Gj4wdHZ5JZ" name="ER">
    <mxGraphModel dx="2370" dy="2210" grid="1" gridSize="10" guides="1" tooltips="1" connect="1" arrows="1" fold="1" page="1" pageScale="1" pageWidth="1600" pageHeight="900" math="0" shadow="0">
      <root>
        <mxCell id="0" />
        <mxCell id="1" parent="0" />
        <mxCell id="g55MrrR227ihKru5B1Yd-4" value="" style="edgeStyle=orthogonalEdgeStyle;rounded=0;orthogonalLoop=1;jettySize=auto;html=1;endArrow=none;endFill=0;" parent="1" source="g55MrrR227ihKru5B1Yd-2" target="g55MrrR227ihKru5B1Yd-3" edge="1">
          <mxGeometry relative="1" as="geometry" />
        </mxCell>
        <mxCell id="g55MrrR227ihKru5B1Yd-12" value="" style="edgeStyle=orthogonalEdgeStyle;rounded=0;orthogonalLoop=1;jettySize=auto;html=1;endArrow=none;endFill=0;" parent="1" source="g55MrrR227ihKru5B1Yd-2" target="g55MrrR227ihKru5B1Yd-11" edge="1">
          <mxGeometry relative="1" as="geometry" />
        </mxCell>
        <mxCell id="g55MrrR227ihKru5B1Yd-15" style="edgeStyle=orthogonalEdgeStyle;rounded=0;orthogonalLoop=1;jettySize=auto;html=1;endArrow=none;endFill=0;" parent="1" source="g55MrrR227ihKru5B1Yd-2" target="g55MrrR227ihKru5B1Yd-14" edge="1">
          <mxGeometry relative="1" as="geometry" />
        </mxCell>
        <mxCell id="g55MrrR227ihKru5B1Yd-17" style="edgeStyle=orthogonalEdgeStyle;rounded=0;orthogonalLoop=1;jettySize=auto;html=1;entryX=0.5;entryY=0;entryDx=0;entryDy=0;endArrow=none;endFill=0;" parent="1" source="g55MrrR227ihKru5B1Yd-2" target="g55MrrR227ihKru5B1Yd-16" edge="1">
          <mxGeometry relative="1" as="geometry" />
        </mxCell>
        <mxCell id="g55MrrR227ihKru5B1Yd-19" style="edgeStyle=orthogonalEdgeStyle;rounded=0;orthogonalLoop=1;jettySize=auto;html=1;entryX=0.5;entryY=0;entryDx=0;entryDy=0;endArrow=none;endFill=0;" parent="1" source="g55MrrR227ihKru5B1Yd-2" target="g55MrrR227ihKru5B1Yd-18" edge="1">
          <mxGeometry relative="1" as="geometry" />
        </mxCell>
        <mxCell id="g55MrrR227ihKru5B1Yd-2" value="User" style="rounded=0;whiteSpace=wrap;html=1;" parent="1" vertex="1">
          <mxGeometry x="930" y="60" width="120" height="60" as="geometry" />
        </mxCell>
        <mxCell id="g55MrrR227ihKru5B1Yd-45" style="edgeStyle=orthogonalEdgeStyle;orthogonalLoop=1;jettySize=auto;html=1;entryX=0.5;entryY=1;entryDx=0;entryDy=0;endArrow=none;endFill=0;" parent="1" source="g55MrrR227ihKru5B1Yd-3" target="g55MrrR227ihKru5B1Yd-21" edge="1">
          <mxGeometry relative="1" as="geometry" />
        </mxCell>
        <mxCell id="g55MrrR227ihKru5B1Yd-3" value="Creates" style="rhombus;whiteSpace=wrap;html=1;rounded=0;" parent="1" vertex="1">
          <mxGeometry x="950" y="-140" width="80" height="80" as="geometry" />
        </mxCell>
        <mxCell id="g55MrrR227ihKru5B1Yd-11" value="&lt;u&gt;User_id&lt;/u&gt;" style="ellipse;whiteSpace=wrap;html=1;rounded=0;" parent="1" vertex="1">
          <mxGeometry x="845" y="170" width="120" height="60" as="geometry" />
        </mxCell>
        <mxCell id="g55MrrR227ihKru5B1Yd-14" value="U_Email" style="ellipse;whiteSpace=wrap;html=1;rounded=0;" parent="1" vertex="1">
          <mxGeometry x="1010" y="170" width="120" height="60" as="geometry" />
        </mxCell>
        <mxCell id="g55MrrR227ihKru5B1Yd-16" value="U_Pwd_Hash" style="ellipse;whiteSpace=wrap;html=1;rounded=0;" parent="1" vertex="1">
          <mxGeometry x="680" y="170" width="120" height="60" as="geometry" />
        </mxCell>
        <mxCell id="g55MrrR227ihKru5B1Yd-18" value="U_Role" style="ellipse;whiteSpace=wrap;html=1;rounded=0;" parent="1" vertex="1">
          <mxGeometry x="1180" y="170" width="120" height="60" as="geometry" />
        </mxCell>
        <mxCell id="g55MrrR227ihKru5B1Yd-23" value="" style="edgeStyle=orthogonalEdgeStyle;rounded=0;orthogonalLoop=1;jettySize=auto;html=1;endArrow=none;endFill=0;" parent="1" source="g55MrrR227ihKru5B1Yd-21" target="g55MrrR227ihKru5B1Yd-22" edge="1">
          <mxGeometry relative="1" as="geometry" />
        </mxCell>
        <mxCell id="g55MrrR227ihKru5B1Yd-25" value="" style="edgeStyle=orthogonalEdgeStyle;rounded=0;orthogonalLoop=1;jettySize=auto;html=1;endArrow=none;endFill=0;" parent="1" source="g55MrrR227ihKru5B1Yd-21" target="g55MrrR227ihKru5B1Yd-24" edge="1">
          <mxGeometry relative="1" as="geometry">
            <Array as="points">
              <mxPoint x="1140" y="-320" />
            </Array>
          </mxGeometry>
        </mxCell>
        <mxCell id="g55MrrR227ihKru5B1Yd-27" value="" style="edgeStyle=orthogonalEdgeStyle;rounded=0;orthogonalLoop=1;jettySize=auto;html=1;endArrow=none;endFill=0;" parent="1" source="g55MrrR227ihKru5B1Yd-21" target="g55MrrR227ihKru5B1Yd-26" edge="1">
          <mxGeometry relative="1" as="geometry">
            <Array as="points">
              <mxPoint x="840" y="-320" />
            </Array>
          </mxGeometry>
        </mxCell>
        <mxCell id="g55MrrR227ihKru5B1Yd-47" value="" style="edgeStyle=orthogonalEdgeStyle;orthogonalLoop=1;jettySize=auto;html=1;endArrow=none;endFill=0;" parent="1" source="g55MrrR227ihKru5B1Yd-21" target="g55MrrR227ihKru5B1Yd-46" edge="1">
          <mxGeometry relative="1" as="geometry" />
        </mxCell>
        <mxCell id="g55MrrR227ihKru5B1Yd-52" value="" style="edgeStyle=orthogonalEdgeStyle;orthogonalLoop=1;jettySize=auto;html=1;endArrow=none;endFill=0;" parent="1" source="g55MrrR227ihKru5B1Yd-21" target="g55MrrR227ihKru5B1Yd-51" edge="1">
          <mxGeometry relative="1" as="geometry">
            <Array as="points">
              <mxPoint x="990" y="-230" />
            </Array>
          </mxGeometry>
        </mxCell>
        <mxCell id="g55MrrR227ihKru5B1Yd-62" value="" style="edgeStyle=orthogonalEdgeStyle;orthogonalLoop=1;jettySize=auto;html=1;endArrow=none;endFill=0;" parent="1" source="g55MrrR227ihKru5B1Yd-21" target="g55MrrR227ihKru5B1Yd-61" edge="1">
          <mxGeometry relative="1" as="geometry" />
        </mxCell>
        <mxCell id="g55MrrR227ihKru5B1Yd-21" value="Rooms" style="rounded=0;whiteSpace=wrap;html=1;" parent="1" vertex="1">
          <mxGeometry x="930" y="-330" width="120" height="60" as="geometry" />
        </mxCell>
        <mxCell id="g55MrrR227ihKru5B1Yd-22" value="&lt;u&gt;Room_Id&lt;/u&gt;" style="ellipse;whiteSpace=wrap;html=1;rounded=0;" parent="1" vertex="1">
          <mxGeometry x="930" y="-470" width="120" height="60" as="geometry" />
        </mxCell>
        <mxCell id="g55MrrR227ihKru5B1Yd-24" value="Room_Name" style="ellipse;whiteSpace=wrap;html=1;rounded=0;" parent="1" vertex="1">
          <mxGeometry x="1080" y="-470" width="120" height="60" as="geometry" />
        </mxCell>
        <mxCell id="g55MrrR227ihKru5B1Yd-26" value="DateTime" style="ellipse;whiteSpace=wrap;html=1;rounded=0;" parent="1" vertex="1">
          <mxGeometry x="780" y="-470" width="120" height="60" as="geometry" />
        </mxCell>
        <mxCell id="g55MrrR227ihKru5B1Yd-30" value="" style="edgeStyle=orthogonalEdgeStyle;rounded=0;orthogonalLoop=1;jettySize=auto;html=1;endArrow=none;endFill=0;" parent="1" source="g55MrrR227ihKru5B1Yd-28" target="g55MrrR227ihKru5B1Yd-29" edge="1">
          <mxGeometry relative="1" as="geometry" />
        </mxCell>
        <mxCell id="g55MrrR227ihKru5B1Yd-32" value="" style="edgeStyle=orthogonalEdgeStyle;rounded=0;orthogonalLoop=1;jettySize=auto;html=1;endArrow=none;endFill=0;" parent="1" source="g55MrrR227ihKru5B1Yd-28" target="g55MrrR227ihKru5B1Yd-31" edge="1">
          <mxGeometry relative="1" as="geometry" />
        </mxCell>
        <mxCell id="g55MrrR227ihKru5B1Yd-34" value="" style="edgeStyle=orthogonalEdgeStyle;rounded=0;orthogonalLoop=1;jettySize=auto;html=1;endArrow=none;endFill=0;" parent="1" source="g55MrrR227ihKru5B1Yd-28" target="g55MrrR227ihKru5B1Yd-33" edge="1">
          <mxGeometry relative="1" as="geometry" />
        </mxCell>
        <mxCell id="g55MrrR227ihKru5B1Yd-36" value="" style="edgeStyle=orthogonalEdgeStyle;rounded=0;orthogonalLoop=1;jettySize=auto;html=1;endArrow=none;endFill=0;" parent="1" source="g55MrrR227ihKru5B1Yd-28" target="g55MrrR227ihKru5B1Yd-35" edge="1">
          <mxGeometry relative="1" as="geometry" />
        </mxCell>
        <mxCell id="g55MrrR227ihKru5B1Yd-28" value="Topics" style="rounded=0;whiteSpace=wrap;html=1;" parent="1" vertex="1">
          <mxGeometry x="1780" y="-390" width="120" height="60" as="geometry" />
        </mxCell>
        <mxCell id="g55MrrR227ihKru5B1Yd-29" value="Topic_Id" style="ellipse;whiteSpace=wrap;html=1;rounded=0;" parent="1" vertex="1">
          <mxGeometry x="1700" y="-510" width="120" height="60" as="geometry" />
        </mxCell>
        <mxCell id="g55MrrR227ihKru5B1Yd-31" value="Topic_Name" style="ellipse;whiteSpace=wrap;html=1;rounded=0;" parent="1" vertex="1">
          <mxGeometry x="1850" y="-510" width="120" height="60" as="geometry" />
        </mxCell>
        <mxCell id="g55MrrR227ihKru5B1Yd-33" value="Topic_Description" style="ellipse;whiteSpace=wrap;html=1;rounded=0;" parent="1" vertex="1">
          <mxGeometry x="1550" y="-510" width="120" height="60" as="geometry" />
        </mxCell>
        <mxCell id="g55MrrR227ihKru5B1Yd-35" value="Topic_Category" style="ellipse;whiteSpace=wrap;html=1;rounded=0;" parent="1" vertex="1">
          <mxGeometry x="2010" y="-510" width="120" height="60" as="geometry" />
        </mxCell>
        <mxCell id="g55MrrR227ihKru5B1Yd-39" value="" style="edgeStyle=orthogonalEdgeStyle;rounded=0;orthogonalLoop=1;jettySize=auto;html=1;endArrow=none;endFill=0;" parent="1" source="g55MrrR227ihKru5B1Yd-37" target="g55MrrR227ihKru5B1Yd-38" edge="1">
          <mxGeometry relative="1" as="geometry" />
        </mxCell>
        <mxCell id="g55MrrR227ihKru5B1Yd-41" value="" style="edgeStyle=orthogonalEdgeStyle;rounded=0;orthogonalLoop=1;jettySize=auto;html=1;endArrow=none;endFill=0;" parent="1" source="g55MrrR227ihKru5B1Yd-37" target="g55MrrR227ihKru5B1Yd-40" edge="1">
          <mxGeometry relative="1" as="geometry" />
        </mxCell>
        <mxCell id="g55MrrR227ihKru5B1Yd-67" value="" style="edgeStyle=orthogonalEdgeStyle;orthogonalLoop=1;jettySize=auto;html=1;endArrow=none;endFill=0;" parent="1" source="g55MrrR227ihKru5B1Yd-37" target="g55MrrR227ihKru5B1Yd-66" edge="1">
          <mxGeometry relative="1" as="geometry" />
        </mxCell>
        <mxCell id="g55MrrR227ihKru5B1Yd-37" value="Participants" style="rounded=0;whiteSpace=wrap;html=1;" parent="1" vertex="1">
          <mxGeometry x="1510" y="-190" width="120" height="60" as="geometry" />
        </mxCell>
        <mxCell id="g55MrrR227ihKru5B1Yd-38" value="&lt;u&gt;P_Id&lt;/u&gt;" style="ellipse;whiteSpace=wrap;html=1;rounded=0;" parent="1" vertex="1">
          <mxGeometry x="1450" y="-280" width="120" height="60" as="geometry" />
        </mxCell>
        <mxCell id="g55MrrR227ihKru5B1Yd-40" value="DateTime" style="ellipse;whiteSpace=wrap;html=1;rounded=0;" parent="1" vertex="1">
          <mxGeometry x="1590" y="-280" width="120" height="60" as="geometry" />
        </mxCell>
        <mxCell id="g55MrrR227ihKru5B1Yd-48" style="edgeStyle=orthogonalEdgeStyle;orthogonalLoop=1;jettySize=auto;html=1;entryX=0.5;entryY=1;entryDx=0;entryDy=0;endArrow=none;endFill=0;" parent="1" source="g55MrrR227ihKru5B1Yd-46" target="g55MrrR227ihKru5B1Yd-28" edge="1">
          <mxGeometry relative="1" as="geometry" />
        </mxCell>
        <mxCell id="g55MrrR227ihKru5B1Yd-46" value="Categorized&lt;br&gt;into" style="rhombus;whiteSpace=wrap;html=1;rounded=0;" parent="1" vertex="1">
          <mxGeometry x="1320" y="-355" width="110" height="110" as="geometry" />
        </mxCell>
        <mxCell id="g55MrrR227ihKru5B1Yd-53" style="edgeStyle=orthogonalEdgeStyle;orthogonalLoop=1;jettySize=auto;html=1;entryX=0.5;entryY=1;entryDx=0;entryDy=0;endArrow=none;endFill=0;" parent="1" source="g55MrrR227ihKru5B1Yd-51" target="g55MrrR227ihKru5B1Yd-37" edge="1">
          <mxGeometry relative="1" as="geometry" />
        </mxCell>
        <mxCell id="g55MrrR227ihKru5B1Yd-51" value="Attends/Joins" style="rhombus;whiteSpace=wrap;html=1;rounded=0;" parent="1" vertex="1">
          <mxGeometry x="1160" y="-280" width="100" height="100" as="geometry" />
        </mxCell>
        <mxCell id="g55MrrR227ihKru5B1Yd-56" value="" style="edgeStyle=orthogonalEdgeStyle;orthogonalLoop=1;jettySize=auto;html=1;endArrow=none;endFill=0;" parent="1" source="g55MrrR227ihKru5B1Yd-54" target="g55MrrR227ihKru5B1Yd-55" edge="1">
          <mxGeometry relative="1" as="geometry" />
        </mxCell>
        <mxCell id="g55MrrR227ihKru5B1Yd-58" value="" style="edgeStyle=orthogonalEdgeStyle;orthogonalLoop=1;jettySize=auto;html=1;endArrow=none;endFill=0;" parent="1" source="g55MrrR227ihKru5B1Yd-54" target="g55MrrR227ihKru5B1Yd-57" edge="1">
          <mxGeometry relative="1" as="geometry" />
        </mxCell>
        <mxCell id="g55MrrR227ihKru5B1Yd-60" value="" style="edgeStyle=orthogonalEdgeStyle;orthogonalLoop=1;jettySize=auto;html=1;endArrow=none;endFill=0;" parent="1" source="g55MrrR227ihKru5B1Yd-54" target="g55MrrR227ihKru5B1Yd-59" edge="1">
          <mxGeometry relative="1" as="geometry" />
        </mxCell>
        <mxCell id="g55MrrR227ihKru5B1Yd-65" value="" style="edgeStyle=orthogonalEdgeStyle;orthogonalLoop=1;jettySize=auto;html=1;endArrow=none;endFill=0;" parent="1" source="g55MrrR227ihKru5B1Yd-54" target="g55MrrR227ihKru5B1Yd-64" edge="1">
          <mxGeometry relative="1" as="geometry" />
        </mxCell>
        <mxCell id="g55MrrR227ihKru5B1Yd-92" value="" style="edgeStyle=orthogonalEdgeStyle;orthogonalLoop=1;jettySize=auto;html=1;fontSize=12;endArrow=none;endFill=0;" parent="1" source="g55MrrR227ihKru5B1Yd-54" target="g55MrrR227ihKru5B1Yd-91" edge="1">
          <mxGeometry relative="1" as="geometry" />
        </mxCell>
        <mxCell id="g55MrrR227ihKru5B1Yd-54" value="Video Based" style="rounded=1;whiteSpace=wrap;html=1;" parent="1" vertex="1">
          <mxGeometry x="1710" y="-50" width="120" height="60" as="geometry" />
        </mxCell>
        <mxCell id="g55MrrR227ihKru5B1Yd-55" value="&lt;u&gt;V_Id&lt;/u&gt;" style="ellipse;whiteSpace=wrap;html=1;rounded=1;" parent="1" vertex="1">
          <mxGeometry x="1870" y="90" width="120" height="60" as="geometry" />
        </mxCell>
        <mxCell id="g55MrrR227ihKru5B1Yd-57" value="V_Name" style="ellipse;whiteSpace=wrap;html=1;rounded=1;" parent="1" vertex="1">
          <mxGeometry x="1870" y="-190" width="120" height="60" as="geometry" />
        </mxCell>
        <mxCell id="g55MrrR227ihKru5B1Yd-59" value="V_Desc" style="ellipse;whiteSpace=wrap;html=1;rounded=1;" parent="1" vertex="1">
          <mxGeometry x="1710" y="-190" width="120" height="60" as="geometry" />
        </mxCell>
        <mxCell id="g55MrrR227ihKru5B1Yd-63" style="edgeStyle=orthogonalEdgeStyle;orthogonalLoop=1;jettySize=auto;html=1;endArrow=none;endFill=0;" parent="1" source="g55MrrR227ihKru5B1Yd-61" target="g55MrrR227ihKru5B1Yd-54" edge="1">
          <mxGeometry relative="1" as="geometry" />
        </mxCell>
        <mxCell id="g55MrrR227ihKru5B1Yd-78" style="edgeStyle=orthogonalEdgeStyle;orthogonalLoop=1;jettySize=auto;html=1;entryX=0;entryY=0.5;entryDx=0;entryDy=0;endArrow=none;endFill=0;" parent="1" source="g55MrrR227ihKru5B1Yd-61" target="g55MrrR227ihKru5B1Yd-69" edge="1">
          <mxGeometry relative="1" as="geometry">
            <Array as="points">
              <mxPoint x="1280" y="70" />
              <mxPoint x="1350" y="70" />
              <mxPoint x="1350" y="270" />
            </Array>
          </mxGeometry>
        </mxCell>
        <mxCell id="g55MrrR227ihKru5B1Yd-61" value="Mode" style="rhombus;whiteSpace=wrap;html=1;rounded=0;" parent="1" vertex="1">
          <mxGeometry x="1240" y="-60" width="80" height="80" as="geometry" />
        </mxCell>
        <mxCell id="g55MrrR227ihKru5B1Yd-64" value="Url_For_Meet" style="ellipse;whiteSpace=wrap;html=1;rounded=1;" parent="1" vertex="1">
          <mxGeometry x="1710" y="90" width="120" height="60" as="geometry" />
        </mxCell>
        <mxCell id="g55MrrR227ihKru5B1Yd-68" style="edgeStyle=orthogonalEdgeStyle;orthogonalLoop=1;jettySize=auto;html=1;entryX=0;entryY=0.5;entryDx=0;entryDy=0;endArrow=none;endFill=0;" parent="1" source="g55MrrR227ihKru5B1Yd-66" target="g55MrrR227ihKru5B1Yd-54" edge="1">
          <mxGeometry relative="1" as="geometry" />
        </mxCell>
        <mxCell id="g55MrrR227ihKru5B1Yd-89" style="edgeStyle=orthogonalEdgeStyle;orthogonalLoop=1;jettySize=auto;html=1;entryX=1;entryY=0.5;entryDx=0;entryDy=0;fontSize=12;endArrow=none;endFill=0;" parent="1" source="g55MrrR227ihKru5B1Yd-66" target="g55MrrR227ihKru5B1Yd-69" edge="1">
          <mxGeometry relative="1" as="geometry">
            <Array as="points">
              <mxPoint x="1570" y="70" />
              <mxPoint x="1660" y="70" />
              <mxPoint x="1660" y="270" />
            </Array>
          </mxGeometry>
        </mxCell>
        <mxCell id="g55MrrR227ihKru5B1Yd-66" value="Attend" style="rhombus;whiteSpace=wrap;html=1;rounded=0;" parent="1" vertex="1">
          <mxGeometry x="1530" y="-20" width="80" height="80" as="geometry" />
        </mxCell>
        <mxCell id="g55MrrR227ihKru5B1Yd-74" style="edgeStyle=orthogonalEdgeStyle;orthogonalLoop=1;jettySize=auto;html=1;entryX=0.5;entryY=1;entryDx=0;entryDy=0;endArrow=none;endFill=0;" parent="1" source="g55MrrR227ihKru5B1Yd-69" target="g55MrrR227ihKru5B1Yd-72" edge="1">
          <mxGeometry relative="1" as="geometry" />
        </mxCell>
        <mxCell id="g55MrrR227ihKru5B1Yd-75" style="edgeStyle=orthogonalEdgeStyle;orthogonalLoop=1;jettySize=auto;html=1;entryX=0.5;entryY=1;entryDx=0;entryDy=0;endArrow=none;endFill=0;" parent="1" source="g55MrrR227ihKru5B1Yd-69" target="g55MrrR227ihKru5B1Yd-71" edge="1">
          <mxGeometry relative="1" as="geometry" />
        </mxCell>
        <mxCell id="g55MrrR227ihKru5B1Yd-76" style="edgeStyle=orthogonalEdgeStyle;orthogonalLoop=1;jettySize=auto;html=1;entryX=0.5;entryY=0;entryDx=0;entryDy=0;endArrow=none;endFill=0;" parent="1" source="g55MrrR227ihKru5B1Yd-69" target="g55MrrR227ihKru5B1Yd-73" edge="1">
          <mxGeometry relative="1" as="geometry" />
        </mxCell>
        <mxCell id="g55MrrR227ihKru5B1Yd-77" style="edgeStyle=orthogonalEdgeStyle;orthogonalLoop=1;jettySize=auto;html=1;endArrow=none;endFill=0;" parent="1" source="g55MrrR227ihKru5B1Yd-69" target="g55MrrR227ihKru5B1Yd-70" edge="1">
          <mxGeometry relative="1" as="geometry" />
        </mxCell>
        <mxCell id="g55MrrR227ihKru5B1Yd-104" value="" style="edgeStyle=orthogonalEdgeStyle;orthogonalLoop=1;jettySize=auto;html=1;fontSize=12;endArrow=none;endFill=0;" parent="1" source="g55MrrR227ihKru5B1Yd-69" target="g55MrrR227ihKru5B1Yd-103" edge="1">
          <mxGeometry relative="1" as="geometry" />
        </mxCell>
        <mxCell id="g55MrrR227ihKru5B1Yd-69" value="Audio Based" style="rounded=1;whiteSpace=wrap;html=1;" parent="1" vertex="1">
          <mxGeometry x="1450" y="240" width="120" height="60" as="geometry" />
        </mxCell>
        <mxCell id="g55MrrR227ihKru5B1Yd-70" value="&lt;u&gt;A_Id&lt;/u&gt;" style="ellipse;whiteSpace=wrap;html=1;rounded=1;" parent="1" vertex="1">
          <mxGeometry x="1530" y="390" width="120" height="60" as="geometry" />
        </mxCell>
        <mxCell id="g55MrrR227ihKru5B1Yd-71" value="A_Name" style="ellipse;whiteSpace=wrap;html=1;rounded=1;" parent="1" vertex="1">
          <mxGeometry x="1530" y="110" width="120" height="60" as="geometry" />
        </mxCell>
        <mxCell id="g55MrrR227ihKru5B1Yd-72" value="A_Desc" style="ellipse;whiteSpace=wrap;html=1;rounded=1;" parent="1" vertex="1">
          <mxGeometry x="1370" y="110" width="120" height="60" as="geometry" />
        </mxCell>
        <mxCell id="g55MrrR227ihKru5B1Yd-73" value="Url_For_AMeet" style="ellipse;whiteSpace=wrap;html=1;rounded=1;" parent="1" vertex="1">
          <mxGeometry x="1370" y="390" width="120" height="60" as="geometry" />
        </mxCell>
        <mxCell id="g55MrrR227ihKru5B1Yd-79" value="&lt;font style=&quot;font-size: 12px ; font-weight: normal&quot;&gt;M&lt;/font&gt;" style="text;strokeColor=none;fillColor=none;html=1;fontSize=24;fontStyle=1;verticalAlign=middle;align=center;" parent="1" vertex="1">
          <mxGeometry x="920" y="-70" width="100" height="40" as="geometry" />
        </mxCell>
        <mxCell id="g55MrrR227ihKru5B1Yd-80" value="&lt;font style=&quot;font-size: 12px ; font-weight: normal&quot;&gt;N&lt;/font&gt;" style="text;strokeColor=none;fillColor=none;html=1;fontSize=24;fontStyle=1;verticalAlign=middle;align=center;" parent="1" vertex="1">
          <mxGeometry x="920" y="-180" width="100" height="40" as="geometry" />
        </mxCell>
        <mxCell id="g55MrrR227ihKru5B1Yd-81" value="&lt;font style=&quot;font-size: 12px ; font-weight: normal&quot;&gt;1&lt;/font&gt;" style="text;strokeColor=none;fillColor=none;html=1;fontSize=24;fontStyle=1;verticalAlign=middle;align=center;" parent="1" vertex="1">
          <mxGeometry x="1070" y="-270" width="100" height="40" as="geometry" />
        </mxCell>
        <mxCell id="g55MrrR227ihKru5B1Yd-82" value="&lt;font style=&quot;font-size: 12px ; font-weight: normal&quot;&gt;N&lt;/font&gt;" style="text;strokeColor=none;fillColor=none;html=1;fontSize=24;fontStyle=1;verticalAlign=middle;align=center;" parent="1" vertex="1">
          <mxGeometry x="1260" y="-230" width="100" height="40" as="geometry" />
        </mxCell>
        <mxCell id="g55MrrR227ihKru5B1Yd-83" value="&lt;font style=&quot;font-size: 12px ; font-weight: normal&quot;&gt;1&lt;/font&gt;" style="text;strokeColor=none;fillColor=none;html=1;fontSize=24;fontStyle=1;verticalAlign=middle;align=center;" parent="1" vertex="1">
          <mxGeometry x="1280" y="-60" width="100" height="40" as="geometry" />
        </mxCell>
        <mxCell id="g55MrrR227ihKru5B1Yd-84" value="&lt;font style=&quot;font-size: 12px ; font-weight: normal&quot;&gt;1&lt;/font&gt;" style="text;strokeColor=none;fillColor=none;html=1;fontSize=24;fontStyle=1;verticalAlign=middle;align=center;" parent="1" vertex="1">
          <mxGeometry x="1250" y="10" width="100" height="40" as="geometry" />
        </mxCell>
        <mxCell id="g55MrrR227ihKru5B1Yd-85" value="&lt;font style=&quot;font-size: 12px ; font-weight: normal&quot;&gt;N&lt;/font&gt;" style="text;strokeColor=none;fillColor=none;html=1;fontSize=24;fontStyle=1;verticalAlign=middle;align=center;" parent="1" vertex="1">
          <mxGeometry x="1220" y="-340" width="100" height="40" as="geometry" />
        </mxCell>
        <mxCell id="g55MrrR227ihKru5B1Yd-86" value="&lt;font style=&quot;font-size: 12px ; font-weight: normal&quot;&gt;M&lt;/font&gt;" style="text;strokeColor=none;fillColor=none;html=1;fontSize=24;fontStyle=1;verticalAlign=middle;align=center;" parent="1" vertex="1">
          <mxGeometry x="1420" y="-340" width="100" height="40" as="geometry" />
        </mxCell>
        <mxCell id="g55MrrR227ihKru5B1Yd-87" value="&lt;font style=&quot;font-size: 12px ; font-weight: normal&quot;&gt;N&lt;/font&gt;" style="text;strokeColor=none;fillColor=none;html=1;fontSize=24;fontStyle=1;verticalAlign=middle;align=center;" parent="1" vertex="1">
          <mxGeometry x="1530" y="-60" width="100" height="40" as="geometry" />
        </mxCell>
        <mxCell id="g55MrrR227ihKru5B1Yd-88" value="&lt;font style=&quot;font-size: 12px ; font-weight: normal&quot;&gt;1&lt;/font&gt;" style="text;strokeColor=none;fillColor=none;html=1;fontSize=24;fontStyle=1;verticalAlign=middle;align=center;" parent="1" vertex="1">
          <mxGeometry x="1570" y="10" width="100" height="40" as="geometry" />
        </mxCell>
        <mxCell id="g55MrrR227ihKru5B1Yd-90" value="&lt;font style=&quot;font-size: 12px ; font-weight: normal&quot;&gt;1&lt;/font&gt;" style="text;strokeColor=none;fillColor=none;html=1;fontSize=24;fontStyle=1;verticalAlign=middle;align=center;" parent="1" vertex="1">
          <mxGeometry x="1500" y="40" width="100" height="40" as="geometry" />
        </mxCell>
        <mxCell id="g55MrrR227ihKru5B1Yd-94" value="" style="edgeStyle=orthogonalEdgeStyle;orthogonalLoop=1;jettySize=auto;html=1;fontSize=12;endArrow=none;endFill=0;" parent="1" source="g55MrrR227ihKru5B1Yd-91" target="g55MrrR227ihKru5B1Yd-93" edge="1">
          <mxGeometry relative="1" as="geometry" />
        </mxCell>
        <mxCell id="g55MrrR227ihKru5B1Yd-96" value="" style="edgeStyle=orthogonalEdgeStyle;orthogonalLoop=1;jettySize=auto;html=1;fontSize=12;endArrow=none;endFill=0;" parent="1" source="g55MrrR227ihKru5B1Yd-91" target="g55MrrR227ihKru5B1Yd-95" edge="1">
          <mxGeometry relative="1" as="geometry" />
        </mxCell>
        <mxCell id="g55MrrR227ihKru5B1Yd-98" value="" style="edgeStyle=orthogonalEdgeStyle;orthogonalLoop=1;jettySize=auto;html=1;fontSize=12;endArrow=none;endFill=0;" parent="1" source="g55MrrR227ihKru5B1Yd-91" target="g55MrrR227ihKru5B1Yd-97" edge="1">
          <mxGeometry relative="1" as="geometry" />
        </mxCell>
        <mxCell id="g55MrrR227ihKru5B1Yd-91" value="V_Status" style="ellipse;whiteSpace=wrap;html=1;rounded=1;" parent="1" vertex="1">
          <mxGeometry x="2110" y="-190" width="120" height="60" as="geometry" />
        </mxCell>
        <mxCell id="g55MrrR227ihKru5B1Yd-93" value="V_Active" style="ellipse;whiteSpace=wrap;html=1;rounded=1;dashed=1;" parent="1" vertex="1">
          <mxGeometry x="1960" y="-310" width="120" height="60" as="geometry" />
        </mxCell>
        <mxCell id="g55MrrR227ihKru5B1Yd-95" value="V_Inactive" style="ellipse;whiteSpace=wrap;html=1;rounded=1;dashed=1;" parent="1" vertex="1">
          <mxGeometry x="2110" y="-310" width="120" height="60" as="geometry" />
        </mxCell>
        <mxCell id="g55MrrR227ihKru5B1Yd-97" value="V_Scheduled" style="ellipse;whiteSpace=wrap;html=1;rounded=1;dashed=1;" parent="1" vertex="1">
          <mxGeometry x="2280" y="-310" width="120" height="60" as="geometry" />
        </mxCell>
        <mxCell id="g55MrrR227ihKru5B1Yd-106" value="" style="edgeStyle=orthogonalEdgeStyle;orthogonalLoop=1;jettySize=auto;html=1;fontSize=12;endArrow=none;endFill=0;" parent="1" source="g55MrrR227ihKru5B1Yd-103" target="g55MrrR227ihKru5B1Yd-105" edge="1">
          <mxGeometry relative="1" as="geometry" />
        </mxCell>
        <mxCell id="g55MrrR227ihKru5B1Yd-108" value="" style="edgeStyle=orthogonalEdgeStyle;orthogonalLoop=1;jettySize=auto;html=1;fontSize=12;endArrow=none;endFill=0;" parent="1" source="g55MrrR227ihKru5B1Yd-103" target="g55MrrR227ihKru5B1Yd-107" edge="1">
          <mxGeometry relative="1" as="geometry">
            <Array as="points">
              <mxPoint x="1880" y="310" />
              <mxPoint x="1740" y="310" />
            </Array>
          </mxGeometry>
        </mxCell>
        <mxCell id="g55MrrR227ihKru5B1Yd-110" value="" style="edgeStyle=orthogonalEdgeStyle;orthogonalLoop=1;jettySize=auto;html=1;fontSize=12;endArrow=none;endFill=0;" parent="1" source="g55MrrR227ihKru5B1Yd-103" target="g55MrrR227ihKru5B1Yd-109" edge="1">
          <mxGeometry relative="1" as="geometry">
            <Array as="points">
              <mxPoint x="1880" y="310" />
              <mxPoint x="1990" y="310" />
            </Array>
          </mxGeometry>
        </mxCell>
        <mxCell id="g55MrrR227ihKru5B1Yd-103" value="A_Status" style="ellipse;whiteSpace=wrap;html=1;rounded=1;" parent="1" vertex="1">
          <mxGeometry x="1820" y="240" width="120" height="60" as="geometry" />
        </mxCell>
        <mxCell id="g55MrrR227ihKru5B1Yd-105" value="A_Active" style="ellipse;whiteSpace=wrap;html=1;rounded=1;dashed=1;" parent="1" vertex="1">
          <mxGeometry x="1820" y="350" width="120" height="60" as="geometry" />
        </mxCell>
        <mxCell id="g55MrrR227ihKru5B1Yd-107" value="&lt;span&gt;A_Inactive&lt;/span&gt;" style="ellipse;whiteSpace=wrap;html=1;rounded=1;dashed=1;" parent="1" vertex="1">
          <mxGeometry x="1680" y="350" width="120" height="60" as="geometry" />
        </mxCell>
        <mxCell id="g55MrrR227ihKru5B1Yd-109" value="&lt;span&gt;A_Scheduled&lt;/span&gt;" style="ellipse;whiteSpace=wrap;html=1;rounded=1;dashed=1;" parent="1" vertex="1">
          <mxGeometry x="1970" y="350" width="120" height="60" as="geometry" />
        </mxCell>
      </root>
    </mxGraphModel>
  </diagram>
  <diagram id="0fyKIlh_q57-V0WU8Gc6" name="EER">
    <mxGraphModel dx="4740" dy="3820" grid="1" gridSize="10" guides="1" tooltips="1" connect="1" arrows="1" fold="1" page="1" pageScale="1" pageWidth="1920" pageHeight="1200" math="0" shadow="0">
      <root>
        <mxCell id="PTd3_jpBzw9lg57d-37p-0" />
        <mxCell id="PTd3_jpBzw9lg57d-37p-1" parent="PTd3_jpBzw9lg57d-37p-0" />
        <mxCell id="__xIO4FGyEVdUkzCUwit-6" style="edgeStyle=orthogonalEdgeStyle;rounded=0;orthogonalLoop=1;jettySize=auto;html=1;endArrow=none;endFill=0;" edge="1" parent="PTd3_jpBzw9lg57d-37p-1" source="__xIO4FGyEVdUkzCUwit-0" target="__xIO4FGyEVdUkzCUwit-5">
          <mxGeometry relative="1" as="geometry" />
        </mxCell>
        <mxCell id="__xIO4FGyEVdUkzCUwit-31" style="edgeStyle=orthogonalEdgeStyle;orthogonalLoop=1;jettySize=auto;html=1;entryX=0.5;entryY=1;entryDx=0;entryDy=0;endArrow=none;endFill=0;rounded=0;" edge="1" parent="PTd3_jpBzw9lg57d-37p-1" source="__xIO4FGyEVdUkzCUwit-0" target="__xIO4FGyEVdUkzCUwit-29">
          <mxGeometry relative="1" as="geometry" />
        </mxCell>
        <mxCell id="__xIO4FGyEVdUkzCUwit-32" style="edgeStyle=orthogonalEdgeStyle;orthogonalLoop=1;jettySize=auto;html=1;entryX=0.5;entryY=1;entryDx=0;entryDy=0;endArrow=none;endFill=0;rounded=0;" edge="1" parent="PTd3_jpBzw9lg57d-37p-1" source="__xIO4FGyEVdUkzCUwit-0" target="__xIO4FGyEVdUkzCUwit-27">
          <mxGeometry relative="1" as="geometry" />
        </mxCell>
        <mxCell id="__xIO4FGyEVdUkzCUwit-33" style="edgeStyle=orthogonalEdgeStyle;orthogonalLoop=1;jettySize=auto;html=1;entryX=0.5;entryY=1;entryDx=0;entryDy=0;endArrow=none;endFill=0;rounded=0;" edge="1" parent="PTd3_jpBzw9lg57d-37p-1" source="__xIO4FGyEVdUkzCUwit-0" target="__xIO4FGyEVdUkzCUwit-28">
          <mxGeometry relative="1" as="geometry" />
        </mxCell>
        <mxCell id="__xIO4FGyEVdUkzCUwit-34" style="edgeStyle=orthogonalEdgeStyle;orthogonalLoop=1;jettySize=auto;html=1;entryX=0.5;entryY=1;entryDx=0;entryDy=0;endArrow=none;endFill=0;rounded=0;" edge="1" parent="PTd3_jpBzw9lg57d-37p-1" source="__xIO4FGyEVdUkzCUwit-0" target="__xIO4FGyEVdUkzCUwit-30">
          <mxGeometry relative="1" as="geometry" />
        </mxCell>
        <mxCell id="__xIO4FGyEVdUkzCUwit-36" style="edgeStyle=orthogonalEdgeStyle;rounded=0;orthogonalLoop=1;jettySize=auto;html=1;entryX=0;entryY=0.5;entryDx=0;entryDy=0;endArrow=none;endFill=0;" edge="1" parent="PTd3_jpBzw9lg57d-37p-1" source="__xIO4FGyEVdUkzCUwit-0" target="__xIO4FGyEVdUkzCUwit-35">
          <mxGeometry relative="1" as="geometry" />
        </mxCell>
        <mxCell id="__xIO4FGyEVdUkzCUwit-0" value="User" style="rounded=0;whiteSpace=wrap;html=1;" vertex="1" parent="PTd3_jpBzw9lg57d-37p-1">
          <mxGeometry x="450" y="520" width="120" height="60" as="geometry" />
        </mxCell>
        <mxCell id="__xIO4FGyEVdUkzCUwit-16" style="edgeStyle=orthogonalEdgeStyle;rounded=0;orthogonalLoop=1;jettySize=auto;html=1;entryX=0.5;entryY=0;entryDx=0;entryDy=0;endArrow=none;endFill=0;" edge="1" parent="PTd3_jpBzw9lg57d-37p-1" source="__xIO4FGyEVdUkzCUwit-1" target="__xIO4FGyEVdUkzCUwit-15">
          <mxGeometry relative="1" as="geometry" />
        </mxCell>
        <mxCell id="__xIO4FGyEVdUkzCUwit-20" value="" style="edgeStyle=orthogonalEdgeStyle;rounded=0;orthogonalLoop=1;jettySize=auto;html=1;endArrow=none;endFill=0;" edge="1" parent="PTd3_jpBzw9lg57d-37p-1" source="__xIO4FGyEVdUkzCUwit-1" target="__xIO4FGyEVdUkzCUwit-19">
          <mxGeometry relative="1" as="geometry" />
        </mxCell>
        <mxCell id="__xIO4FGyEVdUkzCUwit-1" value="Host" style="whiteSpace=wrap;html=1;rounded=0;" vertex="1" parent="PTd3_jpBzw9lg57d-37p-1">
          <mxGeometry x="310" y="740" width="120" height="60" as="geometry" />
        </mxCell>
        <mxCell id="__xIO4FGyEVdUkzCUwit-12" value="" style="edgeStyle=orthogonalEdgeStyle;rounded=0;orthogonalLoop=1;jettySize=auto;html=1;endArrow=none;endFill=0;" edge="1" parent="PTd3_jpBzw9lg57d-37p-1" source="__xIO4FGyEVdUkzCUwit-3" target="__xIO4FGyEVdUkzCUwit-11">
          <mxGeometry relative="1" as="geometry" />
        </mxCell>
        <mxCell id="__xIO4FGyEVdUkzCUwit-14" value="" style="edgeStyle=orthogonalEdgeStyle;rounded=0;orthogonalLoop=1;jettySize=auto;html=1;endArrow=none;endFill=0;" edge="1" parent="PTd3_jpBzw9lg57d-37p-1" source="__xIO4FGyEVdUkzCUwit-3" target="__xIO4FGyEVdUkzCUwit-13">
          <mxGeometry relative="1" as="geometry" />
        </mxCell>
        <mxCell id="__xIO4FGyEVdUkzCUwit-3" value="Subscriber" style="whiteSpace=wrap;html=1;rounded=0;" vertex="1" parent="PTd3_jpBzw9lg57d-37p-1">
          <mxGeometry x="610" y="740" width="120" height="60" as="geometry" />
        </mxCell>
        <mxCell id="__xIO4FGyEVdUkzCUwit-7" style="edgeStyle=orthogonalEdgeStyle;rounded=0;orthogonalLoop=1;jettySize=auto;html=1;entryX=0.5;entryY=0;entryDx=0;entryDy=0;endArrow=none;endFill=0;" edge="1" parent="PTd3_jpBzw9lg57d-37p-1" source="__xIO4FGyEVdUkzCUwit-5" target="__xIO4FGyEVdUkzCUwit-1">
          <mxGeometry relative="1" as="geometry" />
        </mxCell>
        <mxCell id="__xIO4FGyEVdUkzCUwit-8" style="edgeStyle=orthogonalEdgeStyle;rounded=0;orthogonalLoop=1;jettySize=auto;html=1;entryX=0.5;entryY=0;entryDx=0;entryDy=0;endArrow=none;endFill=0;" edge="1" parent="PTd3_jpBzw9lg57d-37p-1" source="__xIO4FGyEVdUkzCUwit-5" target="__xIO4FGyEVdUkzCUwit-3">
          <mxGeometry relative="1" as="geometry" />
        </mxCell>
        <mxCell id="__xIO4FGyEVdUkzCUwit-5" value="O" style="ellipse;whiteSpace=wrap;html=1;aspect=fixed;rounded=0;" vertex="1" parent="PTd3_jpBzw9lg57d-37p-1">
          <mxGeometry x="485" y="620" width="50" height="50" as="geometry" />
        </mxCell>
        <mxCell id="__xIO4FGyEVdUkzCUwit-11" value="S_Email" style="ellipse;whiteSpace=wrap;html=1;rounded=0;" vertex="1" parent="PTd3_jpBzw9lg57d-37p-1">
          <mxGeometry x="780" y="740" width="120" height="60" as="geometry" />
        </mxCell>
        <mxCell id="__xIO4FGyEVdUkzCUwit-13" value="S_Pwd_Hash" style="ellipse;whiteSpace=wrap;html=1;rounded=0;" vertex="1" parent="PTd3_jpBzw9lg57d-37p-1">
          <mxGeometry x="610" y="820" width="120" height="60" as="geometry" />
        </mxCell>
        <mxCell id="__xIO4FGyEVdUkzCUwit-15" value="H_Pwd_Hash" style="ellipse;whiteSpace=wrap;html=1;rounded=0;" vertex="1" parent="PTd3_jpBzw9lg57d-37p-1">
          <mxGeometry x="310" y="820" width="120" height="60" as="geometry" />
        </mxCell>
        <mxCell id="__xIO4FGyEVdUkzCUwit-19" value="H_Email" style="ellipse;whiteSpace=wrap;html=1;rounded=0;" vertex="1" parent="PTd3_jpBzw9lg57d-37p-1">
          <mxGeometry x="160" y="740" width="120" height="60" as="geometry" />
        </mxCell>
        <mxCell id="__xIO4FGyEVdUkzCUwit-23" value="" style="shape=requiredInterface;html=1;verticalLabelPosition=bottom;sketch=0;rounded=0;rotation=90;" vertex="1" parent="PTd3_jpBzw9lg57d-37p-1">
          <mxGeometry x="358.38" y="654.84" width="23.23" height="46.46" as="geometry" />
        </mxCell>
        <mxCell id="__xIO4FGyEVdUkzCUwit-26" value="" style="shape=requiredInterface;html=1;verticalLabelPosition=bottom;sketch=0;rounded=0;rotation=90;" vertex="1" parent="PTd3_jpBzw9lg57d-37p-1">
          <mxGeometry x="658.38" y="654.84" width="23.23" height="46.46" as="geometry" />
        </mxCell>
        <mxCell id="__xIO4FGyEVdUkzCUwit-27" value="&lt;u&gt;User_id&lt;/u&gt;" style="ellipse;whiteSpace=wrap;html=1;rounded=0;" vertex="1" parent="PTd3_jpBzw9lg57d-37p-1">
          <mxGeometry x="365" y="410" width="120" height="60" as="geometry" />
        </mxCell>
        <mxCell id="__xIO4FGyEVdUkzCUwit-28" value="U_Email" style="ellipse;whiteSpace=wrap;html=1;rounded=0;" vertex="1" parent="PTd3_jpBzw9lg57d-37p-1">
          <mxGeometry x="535" y="410" width="120" height="60" as="geometry" />
        </mxCell>
        <mxCell id="__xIO4FGyEVdUkzCUwit-29" value="U_Pwd_Hash" style="ellipse;whiteSpace=wrap;html=1;rounded=0;" vertex="1" parent="PTd3_jpBzw9lg57d-37p-1">
          <mxGeometry x="450" y="310" width="120" height="60" as="geometry" />
        </mxCell>
        <mxCell id="__xIO4FGyEVdUkzCUwit-30" value="U_Role" style="ellipse;whiteSpace=wrap;html=1;rounded=0;" vertex="1" parent="PTd3_jpBzw9lg57d-37p-1">
          <mxGeometry x="290" y="320" width="120" height="60" as="geometry" />
        </mxCell>
        <mxCell id="__xIO4FGyEVdUkzCUwit-44" style="edgeStyle=orthogonalEdgeStyle;rounded=0;orthogonalLoop=1;jettySize=auto;html=1;entryX=0;entryY=0.667;entryDx=0;entryDy=0;entryPerimeter=0;endArrow=none;endFill=0;" edge="1" parent="PTd3_jpBzw9lg57d-37p-1" source="__xIO4FGyEVdUkzCUwit-35" target="__xIO4FGyEVdUkzCUwit-40">
          <mxGeometry relative="1" as="geometry" />
        </mxCell>
        <mxCell id="__xIO4FGyEVdUkzCUwit-35" value="Creates" style="rhombus;whiteSpace=wrap;html=1;" vertex="1" parent="PTd3_jpBzw9lg57d-37p-1">
          <mxGeometry x="770" y="510" width="80" height="80" as="geometry" />
        </mxCell>
        <mxCell id="__xIO4FGyEVdUkzCUwit-37" value="" style="edgeStyle=orthogonalEdgeStyle;rounded=0;orthogonalLoop=1;jettySize=auto;html=1;endArrow=none;endFill=0;" edge="1" parent="PTd3_jpBzw9lg57d-37p-1" source="__xIO4FGyEVdUkzCUwit-40" target="__xIO4FGyEVdUkzCUwit-41">
          <mxGeometry relative="1" as="geometry" />
        </mxCell>
        <mxCell id="__xIO4FGyEVdUkzCUwit-38" value="" style="edgeStyle=orthogonalEdgeStyle;rounded=0;orthogonalLoop=1;jettySize=auto;html=1;endArrow=none;endFill=0;" edge="1" parent="PTd3_jpBzw9lg57d-37p-1" source="__xIO4FGyEVdUkzCUwit-40" target="__xIO4FGyEVdUkzCUwit-42">
          <mxGeometry relative="1" as="geometry">
            <Array as="points">
              <mxPoint x="1300" y="520" />
            </Array>
          </mxGeometry>
        </mxCell>
        <mxCell id="__xIO4FGyEVdUkzCUwit-39" value="" style="edgeStyle=orthogonalEdgeStyle;rounded=0;orthogonalLoop=1;jettySize=auto;html=1;endArrow=none;endFill=0;" edge="1" parent="PTd3_jpBzw9lg57d-37p-1" source="__xIO4FGyEVdUkzCUwit-40" target="__xIO4FGyEVdUkzCUwit-43">
          <mxGeometry relative="1" as="geometry">
            <Array as="points">
              <mxPoint x="1000" y="520" />
            </Array>
          </mxGeometry>
        </mxCell>
        <mxCell id="__xIO4FGyEVdUkzCUwit-47" style="edgeStyle=orthogonalEdgeStyle;rounded=0;orthogonalLoop=1;jettySize=auto;html=1;entryX=0.5;entryY=0;entryDx=0;entryDy=0;endArrow=none;endFill=0;" edge="1" parent="PTd3_jpBzw9lg57d-37p-1" source="__xIO4FGyEVdUkzCUwit-40" target="__xIO4FGyEVdUkzCUwit-46">
          <mxGeometry relative="1" as="geometry" />
        </mxCell>
        <mxCell id="__xIO4FGyEVdUkzCUwit-73" value="" style="edgeStyle=orthogonalEdgeStyle;rounded=0;orthogonalLoop=1;jettySize=auto;html=1;endArrow=none;endFill=0;" edge="1" parent="PTd3_jpBzw9lg57d-37p-1" source="__xIO4FGyEVdUkzCUwit-40" target="__xIO4FGyEVdUkzCUwit-72">
          <mxGeometry relative="1" as="geometry" />
        </mxCell>
        <mxCell id="__xIO4FGyEVdUkzCUwit-91" style="edgeStyle=orthogonalEdgeStyle;rounded=0;orthogonalLoop=1;jettySize=auto;html=1;entryX=0.5;entryY=1;entryDx=0;entryDy=0;endArrow=none;endFill=0;" edge="1" parent="PTd3_jpBzw9lg57d-37p-1" source="__xIO4FGyEVdUkzCUwit-40" target="__xIO4FGyEVdUkzCUwit-90">
          <mxGeometry relative="1" as="geometry">
            <Array as="points">
              <mxPoint x="1460" y="540" />
            </Array>
          </mxGeometry>
        </mxCell>
        <mxCell id="__xIO4FGyEVdUkzCUwit-159" value="" style="edgeStyle=orthogonalEdgeStyle;rounded=0;orthogonalLoop=1;jettySize=auto;html=1;endArrow=none;endFill=0;" edge="1" parent="PTd3_jpBzw9lg57d-37p-1" source="__xIO4FGyEVdUkzCUwit-40" target="__xIO4FGyEVdUkzCUwit-158">
          <mxGeometry relative="1" as="geometry" />
        </mxCell>
        <mxCell id="__xIO4FGyEVdUkzCUwit-40" value="Rooms" style="rounded=0;whiteSpace=wrap;html=1;" vertex="1" parent="PTd3_jpBzw9lg57d-37p-1">
          <mxGeometry x="1090" y="510" width="120" height="60" as="geometry" />
        </mxCell>
        <mxCell id="__xIO4FGyEVdUkzCUwit-41" value="&lt;u&gt;Room_Id&lt;/u&gt;" style="ellipse;whiteSpace=wrap;html=1;rounded=0;" vertex="1" parent="PTd3_jpBzw9lg57d-37p-1">
          <mxGeometry x="1090" y="370" width="120" height="60" as="geometry" />
        </mxCell>
        <mxCell id="__xIO4FGyEVdUkzCUwit-42" value="Room_Name" style="ellipse;whiteSpace=wrap;html=1;rounded=0;" vertex="1" parent="PTd3_jpBzw9lg57d-37p-1">
          <mxGeometry x="1240" y="370" width="120" height="60" as="geometry" />
        </mxCell>
        <mxCell id="__xIO4FGyEVdUkzCUwit-43" value="DateTime" style="ellipse;whiteSpace=wrap;html=1;rounded=0;" vertex="1" parent="PTd3_jpBzw9lg57d-37p-1">
          <mxGeometry x="940" y="370" width="120" height="60" as="geometry" />
        </mxCell>
        <mxCell id="__xIO4FGyEVdUkzCUwit-54" value="" style="edgeStyle=orthogonalEdgeStyle;rounded=0;orthogonalLoop=1;jettySize=auto;html=1;endArrow=none;endFill=0;" edge="1" parent="PTd3_jpBzw9lg57d-37p-1" source="__xIO4FGyEVdUkzCUwit-45" target="__xIO4FGyEVdUkzCUwit-53">
          <mxGeometry relative="1" as="geometry" />
        </mxCell>
        <mxCell id="__xIO4FGyEVdUkzCUwit-58" value="" style="edgeStyle=orthogonalEdgeStyle;rounded=0;orthogonalLoop=1;jettySize=auto;html=1;endArrow=none;endFill=0;" edge="1" parent="PTd3_jpBzw9lg57d-37p-1" source="__xIO4FGyEVdUkzCUwit-45" target="__xIO4FGyEVdUkzCUwit-57">
          <mxGeometry relative="1" as="geometry" />
        </mxCell>
        <mxCell id="__xIO4FGyEVdUkzCUwit-45" value="Active_Room" style="rounded=0;whiteSpace=wrap;html=1;" vertex="1" parent="PTd3_jpBzw9lg57d-37p-1">
          <mxGeometry x="1010" y="690" width="120" height="60" as="geometry" />
        </mxCell>
        <mxCell id="__xIO4FGyEVdUkzCUwit-48" style="edgeStyle=orthogonalEdgeStyle;rounded=0;orthogonalLoop=1;jettySize=auto;html=1;entryX=0.5;entryY=0;entryDx=0;entryDy=0;endArrow=none;endFill=0;" edge="1" parent="PTd3_jpBzw9lg57d-37p-1" source="__xIO4FGyEVdUkzCUwit-46" target="__xIO4FGyEVdUkzCUwit-45">
          <mxGeometry relative="1" as="geometry">
            <Array as="points">
              <mxPoint x="1070" y="615" />
              <mxPoint x="1070" y="690" />
            </Array>
          </mxGeometry>
        </mxCell>
        <mxCell id="__xIO4FGyEVdUkzCUwit-50" style="edgeStyle=orthogonalEdgeStyle;rounded=0;orthogonalLoop=1;jettySize=auto;html=1;entryX=0.558;entryY=0.017;entryDx=0;entryDy=0;entryPerimeter=0;endArrow=none;endFill=0;" edge="1" parent="PTd3_jpBzw9lg57d-37p-1" source="__xIO4FGyEVdUkzCUwit-46" target="__xIO4FGyEVdUkzCUwit-49">
          <mxGeometry relative="1" as="geometry">
            <Array as="points">
              <mxPoint x="1237" y="615" />
            </Array>
          </mxGeometry>
        </mxCell>
        <mxCell id="__xIO4FGyEVdUkzCUwit-46" value="d" style="ellipse;whiteSpace=wrap;html=1;aspect=fixed;rounded=0;" vertex="1" parent="PTd3_jpBzw9lg57d-37p-1">
          <mxGeometry x="1125" y="590" width="50" height="50" as="geometry" />
        </mxCell>
        <mxCell id="__xIO4FGyEVdUkzCUwit-56" value="" style="edgeStyle=orthogonalEdgeStyle;rounded=0;orthogonalLoop=1;jettySize=auto;html=1;endArrow=none;endFill=0;" edge="1" parent="PTd3_jpBzw9lg57d-37p-1" source="__xIO4FGyEVdUkzCUwit-49" target="__xIO4FGyEVdUkzCUwit-55">
          <mxGeometry relative="1" as="geometry" />
        </mxCell>
        <mxCell id="__xIO4FGyEVdUkzCUwit-49" value="Passive_Room" style="rounded=0;whiteSpace=wrap;html=1;" vertex="1" parent="PTd3_jpBzw9lg57d-37p-1">
          <mxGeometry x="1190" y="690" width="120" height="60" as="geometry" />
        </mxCell>
        <mxCell id="__xIO4FGyEVdUkzCUwit-51" value="" style="shape=requiredInterface;html=1;verticalLabelPosition=bottom;sketch=0;rounded=0;rotation=90;" vertex="1" parent="PTd3_jpBzw9lg57d-37p-1">
          <mxGeometry x="1058.3899999999999" y="623.5400000000001" width="23.23" height="46.46" as="geometry" />
        </mxCell>
        <mxCell id="__xIO4FGyEVdUkzCUwit-52" value="" style="shape=requiredInterface;html=1;verticalLabelPosition=bottom;sketch=0;rounded=0;rotation=90;" vertex="1" parent="PTd3_jpBzw9lg57d-37p-1">
          <mxGeometry x="1230" y="621.77" width="23.23" height="46.46" as="geometry" />
        </mxCell>
        <mxCell id="__xIO4FGyEVdUkzCUwit-53" value="No_of_participants" style="ellipse;whiteSpace=wrap;html=1;rounded=0;" vertex="1" parent="PTd3_jpBzw9lg57d-37p-1">
          <mxGeometry x="1010" y="790" width="120" height="60" as="geometry" />
        </mxCell>
        <mxCell id="__xIO4FGyEVdUkzCUwit-55" value="No_of_recurring_participants" style="ellipse;whiteSpace=wrap;html=1;rounded=0;" vertex="1" parent="PTd3_jpBzw9lg57d-37p-1">
          <mxGeometry x="1160" y="790" width="180" height="90" as="geometry" />
        </mxCell>
        <mxCell id="__xIO4FGyEVdUkzCUwit-57" value="Total_Time" style="ellipse;whiteSpace=wrap;html=1;rounded=0;" vertex="1" parent="PTd3_jpBzw9lg57d-37p-1">
          <mxGeometry x="880" y="850" width="120" height="60" as="geometry" />
        </mxCell>
        <mxCell id="__xIO4FGyEVdUkzCUwit-61" value="" style="edgeStyle=orthogonalEdgeStyle;rounded=0;orthogonalLoop=1;jettySize=auto;html=1;endArrow=none;endFill=0;exitX=1;exitY=0.5;exitDx=0;exitDy=0;" edge="1" parent="PTd3_jpBzw9lg57d-37p-1" target="__xIO4FGyEVdUkzCUwit-62" source="__xIO4FGyEVdUkzCUwit-49">
          <mxGeometry relative="1" as="geometry">
            <mxPoint x="1470" y="720" as="sourcePoint" />
          </mxGeometry>
        </mxCell>
        <mxCell id="__xIO4FGyEVdUkzCUwit-62" value="Total_Time" style="ellipse;whiteSpace=wrap;html=1;rounded=0;" vertex="1" parent="PTd3_jpBzw9lg57d-37p-1">
          <mxGeometry x="1360" y="850" width="120" height="60" as="geometry" />
        </mxCell>
        <mxCell id="__xIO4FGyEVdUkzCUwit-63" value="" style="edgeStyle=orthogonalEdgeStyle;rounded=0;orthogonalLoop=1;jettySize=auto;html=1;endArrow=none;endFill=0;" edge="1" parent="PTd3_jpBzw9lg57d-37p-1" source="__xIO4FGyEVdUkzCUwit-67" target="__xIO4FGyEVdUkzCUwit-68">
          <mxGeometry relative="1" as="geometry" />
        </mxCell>
        <mxCell id="__xIO4FGyEVdUkzCUwit-64" value="" style="edgeStyle=orthogonalEdgeStyle;rounded=0;orthogonalLoop=1;jettySize=auto;html=1;endArrow=none;endFill=0;" edge="1" parent="PTd3_jpBzw9lg57d-37p-1" source="__xIO4FGyEVdUkzCUwit-67" target="__xIO4FGyEVdUkzCUwit-69">
          <mxGeometry relative="1" as="geometry" />
        </mxCell>
        <mxCell id="__xIO4FGyEVdUkzCUwit-65" value="" style="edgeStyle=orthogonalEdgeStyle;rounded=0;orthogonalLoop=1;jettySize=auto;html=1;endArrow=none;endFill=0;" edge="1" parent="PTd3_jpBzw9lg57d-37p-1" source="__xIO4FGyEVdUkzCUwit-67" target="__xIO4FGyEVdUkzCUwit-70">
          <mxGeometry relative="1" as="geometry" />
        </mxCell>
        <mxCell id="__xIO4FGyEVdUkzCUwit-66" value="" style="edgeStyle=orthogonalEdgeStyle;rounded=0;orthogonalLoop=1;jettySize=auto;html=1;endArrow=none;endFill=0;" edge="1" parent="PTd3_jpBzw9lg57d-37p-1" source="__xIO4FGyEVdUkzCUwit-67" target="__xIO4FGyEVdUkzCUwit-71">
          <mxGeometry relative="1" as="geometry" />
        </mxCell>
        <mxCell id="__xIO4FGyEVdUkzCUwit-67" value="Topics" style="rounded=0;whiteSpace=wrap;html=1;" vertex="1" parent="PTd3_jpBzw9lg57d-37p-1">
          <mxGeometry x="1780" y="500" width="120" height="60" as="geometry" />
        </mxCell>
        <mxCell id="__xIO4FGyEVdUkzCUwit-68" value="Topic_Id" style="ellipse;whiteSpace=wrap;html=1;rounded=0;" vertex="1" parent="PTd3_jpBzw9lg57d-37p-1">
          <mxGeometry x="1700" y="380" width="120" height="60" as="geometry" />
        </mxCell>
        <mxCell id="__xIO4FGyEVdUkzCUwit-69" value="Topic_Name" style="ellipse;whiteSpace=wrap;html=1;rounded=0;" vertex="1" parent="PTd3_jpBzw9lg57d-37p-1">
          <mxGeometry x="1850" y="380" width="120" height="60" as="geometry" />
        </mxCell>
        <mxCell id="__xIO4FGyEVdUkzCUwit-70" value="Topic_Description" style="ellipse;whiteSpace=wrap;html=1;rounded=0;" vertex="1" parent="PTd3_jpBzw9lg57d-37p-1">
          <mxGeometry x="1550" y="380" width="120" height="60" as="geometry" />
        </mxCell>
        <mxCell id="__xIO4FGyEVdUkzCUwit-71" value="Topic_Category" style="ellipse;whiteSpace=wrap;html=1;rounded=0;" vertex="1" parent="PTd3_jpBzw9lg57d-37p-1">
          <mxGeometry x="2010" y="380" width="120" height="60" as="geometry" />
        </mxCell>
        <mxCell id="__xIO4FGyEVdUkzCUwit-74" style="edgeStyle=orthogonalEdgeStyle;rounded=0;orthogonalLoop=1;jettySize=auto;html=1;endArrow=none;endFill=0;entryX=0.5;entryY=1;entryDx=0;entryDy=0;" edge="1" parent="PTd3_jpBzw9lg57d-37p-1" source="__xIO4FGyEVdUkzCUwit-72" target="__xIO4FGyEVdUkzCUwit-67">
          <mxGeometry relative="1" as="geometry">
            <mxPoint x="1840" y="600" as="targetPoint" />
          </mxGeometry>
        </mxCell>
        <mxCell id="__xIO4FGyEVdUkzCUwit-72" value="&lt;span&gt;Categorized&lt;/span&gt;&lt;br&gt;&lt;span&gt;into&lt;/span&gt;" style="rhombus;whiteSpace=wrap;html=1;rounded=0;" vertex="1" parent="PTd3_jpBzw9lg57d-37p-1">
          <mxGeometry x="1410" y="550" width="100" height="100" as="geometry" />
        </mxCell>
        <mxCell id="__xIO4FGyEVdUkzCUwit-83" value="" style="edgeStyle=orthogonalEdgeStyle;rounded=0;orthogonalLoop=1;jettySize=auto;html=1;endArrow=none;endFill=0;" edge="1" parent="PTd3_jpBzw9lg57d-37p-1" source="__xIO4FGyEVdUkzCUwit-75" target="__xIO4FGyEVdUkzCUwit-82">
          <mxGeometry relative="1" as="geometry" />
        </mxCell>
        <mxCell id="__xIO4FGyEVdUkzCUwit-85" value="" style="edgeStyle=orthogonalEdgeStyle;rounded=0;orthogonalLoop=1;jettySize=auto;html=1;endArrow=none;endFill=0;" edge="1" parent="PTd3_jpBzw9lg57d-37p-1" source="__xIO4FGyEVdUkzCUwit-75" target="__xIO4FGyEVdUkzCUwit-84">
          <mxGeometry relative="1" as="geometry" />
        </mxCell>
        <mxCell id="__xIO4FGyEVdUkzCUwit-75" value="Long_Term Topics" style="rounded=0;whiteSpace=wrap;html=1;" vertex="1" parent="PTd3_jpBzw9lg57d-37p-1">
          <mxGeometry x="1680" y="740" width="120" height="60" as="geometry" />
        </mxCell>
        <mxCell id="__xIO4FGyEVdUkzCUwit-88" style="edgeStyle=orthogonalEdgeStyle;rounded=0;orthogonalLoop=1;jettySize=auto;html=1;endArrow=none;endFill=0;" edge="1" parent="PTd3_jpBzw9lg57d-37p-1" source="__xIO4FGyEVdUkzCUwit-76" target="__xIO4FGyEVdUkzCUwit-86">
          <mxGeometry relative="1" as="geometry" />
        </mxCell>
        <mxCell id="__xIO4FGyEVdUkzCUwit-89" style="edgeStyle=orthogonalEdgeStyle;rounded=0;orthogonalLoop=1;jettySize=auto;html=1;endArrow=none;endFill=0;" edge="1" parent="PTd3_jpBzw9lg57d-37p-1" source="__xIO4FGyEVdUkzCUwit-76" target="__xIO4FGyEVdUkzCUwit-87">
          <mxGeometry relative="1" as="geometry" />
        </mxCell>
        <mxCell id="__xIO4FGyEVdUkzCUwit-76" value="Trending_Topics" style="rounded=0;whiteSpace=wrap;html=1;" vertex="1" parent="PTd3_jpBzw9lg57d-37p-1">
          <mxGeometry x="1890" y="740" width="120" height="60" as="geometry" />
        </mxCell>
        <mxCell id="__xIO4FGyEVdUkzCUwit-79" style="edgeStyle=orthogonalEdgeStyle;rounded=0;orthogonalLoop=1;jettySize=auto;html=1;endArrow=none;endFill=0;" edge="1" parent="PTd3_jpBzw9lg57d-37p-1" source="__xIO4FGyEVdUkzCUwit-78" target="__xIO4FGyEVdUkzCUwit-67">
          <mxGeometry relative="1" as="geometry" />
        </mxCell>
        <mxCell id="__xIO4FGyEVdUkzCUwit-80" style="edgeStyle=orthogonalEdgeStyle;rounded=0;orthogonalLoop=1;jettySize=auto;html=1;entryX=0.5;entryY=0;entryDx=0;entryDy=0;endArrow=none;endFill=0;" edge="1" parent="PTd3_jpBzw9lg57d-37p-1" source="__xIO4FGyEVdUkzCUwit-78" target="__xIO4FGyEVdUkzCUwit-75">
          <mxGeometry relative="1" as="geometry" />
        </mxCell>
        <mxCell id="__xIO4FGyEVdUkzCUwit-81" style="edgeStyle=orthogonalEdgeStyle;rounded=0;orthogonalLoop=1;jettySize=auto;html=1;endArrow=none;endFill=0;" edge="1" parent="PTd3_jpBzw9lg57d-37p-1" source="__xIO4FGyEVdUkzCUwit-78" target="__xIO4FGyEVdUkzCUwit-76">
          <mxGeometry relative="1" as="geometry" />
        </mxCell>
        <mxCell id="__xIO4FGyEVdUkzCUwit-78" value="O" style="ellipse;whiteSpace=wrap;html=1;aspect=fixed;rounded=0;" vertex="1" parent="PTd3_jpBzw9lg57d-37p-1">
          <mxGeometry x="1815" y="620" width="50" height="50" as="geometry" />
        </mxCell>
        <mxCell id="__xIO4FGyEVdUkzCUwit-82" value="Topic_Id" style="ellipse;whiteSpace=wrap;html=1;rounded=0;" vertex="1" parent="PTd3_jpBzw9lg57d-37p-1">
          <mxGeometry x="1680" y="880" width="120" height="60" as="geometry" />
        </mxCell>
        <mxCell id="__xIO4FGyEVdUkzCUwit-84" value="Topic_Name" style="ellipse;whiteSpace=wrap;html=1;rounded=0;" vertex="1" parent="PTd3_jpBzw9lg57d-37p-1">
          <mxGeometry x="1480" y="740" width="120" height="60" as="geometry" />
        </mxCell>
        <mxCell id="__xIO4FGyEVdUkzCUwit-86" value="Topic_Id" style="ellipse;whiteSpace=wrap;html=1;rounded=0;" vertex="1" parent="PTd3_jpBzw9lg57d-37p-1">
          <mxGeometry x="1890" y="880" width="120" height="60" as="geometry" />
        </mxCell>
        <mxCell id="__xIO4FGyEVdUkzCUwit-87" value="Topic_Name" style="ellipse;whiteSpace=wrap;html=1;rounded=0;" vertex="1" parent="PTd3_jpBzw9lg57d-37p-1">
          <mxGeometry x="2100" y="740" width="120" height="60" as="geometry" />
        </mxCell>
        <mxCell id="__xIO4FGyEVdUkzCUwit-93" style="edgeStyle=orthogonalEdgeStyle;rounded=0;orthogonalLoop=1;jettySize=auto;html=1;endArrow=none;endFill=0;" edge="1" parent="PTd3_jpBzw9lg57d-37p-1" source="__xIO4FGyEVdUkzCUwit-90" target="__xIO4FGyEVdUkzCUwit-92">
          <mxGeometry relative="1" as="geometry" />
        </mxCell>
        <mxCell id="__xIO4FGyEVdUkzCUwit-90" value="Attends/Joins" style="rhombus;whiteSpace=wrap;html=1;rounded=0;" vertex="1" parent="PTd3_jpBzw9lg57d-37p-1">
          <mxGeometry x="1410" y="260" width="100" height="100" as="geometry" />
        </mxCell>
        <mxCell id="__xIO4FGyEVdUkzCUwit-116" style="edgeStyle=orthogonalEdgeStyle;rounded=0;orthogonalLoop=1;jettySize=auto;html=1;entryX=0.5;entryY=1;entryDx=0;entryDy=0;endArrow=none;endFill=0;" edge="1" parent="PTd3_jpBzw9lg57d-37p-1" source="__xIO4FGyEVdUkzCUwit-92" target="__xIO4FGyEVdUkzCUwit-115">
          <mxGeometry relative="1" as="geometry" />
        </mxCell>
        <mxCell id="__xIO4FGyEVdUkzCUwit-121" style="edgeStyle=orthogonalEdgeStyle;rounded=0;orthogonalLoop=1;jettySize=auto;html=1;entryX=0;entryY=0.5;entryDx=0;entryDy=0;endArrow=none;endFill=0;" edge="1" parent="PTd3_jpBzw9lg57d-37p-1" source="__xIO4FGyEVdUkzCUwit-92" target="__xIO4FGyEVdUkzCUwit-94">
          <mxGeometry relative="1" as="geometry" />
        </mxCell>
        <mxCell id="__xIO4FGyEVdUkzCUwit-122" style="edgeStyle=orthogonalEdgeStyle;rounded=0;orthogonalLoop=1;jettySize=auto;html=1;entryX=1;entryY=0.5;entryDx=0;entryDy=0;endArrow=none;endFill=0;" edge="1" parent="PTd3_jpBzw9lg57d-37p-1" source="__xIO4FGyEVdUkzCUwit-92" target="__xIO4FGyEVdUkzCUwit-95">
          <mxGeometry relative="1" as="geometry" />
        </mxCell>
        <mxCell id="__xIO4FGyEVdUkzCUwit-128" value="" style="edgeStyle=orthogonalEdgeStyle;rounded=0;orthogonalLoop=1;jettySize=auto;html=1;endArrow=none;endFill=0;" edge="1" parent="PTd3_jpBzw9lg57d-37p-1" source="__xIO4FGyEVdUkzCUwit-92" target="__xIO4FGyEVdUkzCUwit-127">
          <mxGeometry relative="1" as="geometry" />
        </mxCell>
        <mxCell id="__xIO4FGyEVdUkzCUwit-92" value="Participants" style="rounded=0;whiteSpace=wrap;html=1;" vertex="1" parent="PTd3_jpBzw9lg57d-37p-1">
          <mxGeometry x="1400" y="120" width="120" height="60" as="geometry" />
        </mxCell>
        <mxCell id="__xIO4FGyEVdUkzCUwit-94" value="&lt;u&gt;P_Id&lt;/u&gt;" style="ellipse;whiteSpace=wrap;html=1;rounded=0;" vertex="1" parent="PTd3_jpBzw9lg57d-37p-1">
          <mxGeometry x="1570" y="60" width="120" height="60" as="geometry" />
        </mxCell>
        <mxCell id="__xIO4FGyEVdUkzCUwit-95" value="DateTime" style="ellipse;whiteSpace=wrap;html=1;rounded=0;" vertex="1" parent="PTd3_jpBzw9lg57d-37p-1">
          <mxGeometry x="1230" y="90" width="120" height="60" as="geometry" />
        </mxCell>
        <mxCell id="__xIO4FGyEVdUkzCUwit-98" value="" style="edgeStyle=orthogonalEdgeStyle;orthogonalLoop=1;jettySize=auto;html=1;endArrow=none;endFill=0;rounded=0;" edge="1" parent="PTd3_jpBzw9lg57d-37p-1" source="__xIO4FGyEVdUkzCUwit-103" target="__xIO4FGyEVdUkzCUwit-104">
          <mxGeometry relative="1" as="geometry" />
        </mxCell>
        <mxCell id="__xIO4FGyEVdUkzCUwit-99" value="" style="edgeStyle=orthogonalEdgeStyle;orthogonalLoop=1;jettySize=auto;html=1;endArrow=none;endFill=0;rounded=0;" edge="1" parent="PTd3_jpBzw9lg57d-37p-1" source="__xIO4FGyEVdUkzCUwit-103" target="__xIO4FGyEVdUkzCUwit-105">
          <mxGeometry relative="1" as="geometry" />
        </mxCell>
        <mxCell id="__xIO4FGyEVdUkzCUwit-100" value="" style="edgeStyle=orthogonalEdgeStyle;orthogonalLoop=1;jettySize=auto;html=1;endArrow=none;endFill=0;rounded=0;" edge="1" parent="PTd3_jpBzw9lg57d-37p-1" source="__xIO4FGyEVdUkzCUwit-103" target="__xIO4FGyEVdUkzCUwit-106">
          <mxGeometry relative="1" as="geometry" />
        </mxCell>
        <mxCell id="__xIO4FGyEVdUkzCUwit-101" value="" style="edgeStyle=orthogonalEdgeStyle;orthogonalLoop=1;jettySize=auto;html=1;endArrow=none;endFill=0;rounded=0;" edge="1" parent="PTd3_jpBzw9lg57d-37p-1" source="__xIO4FGyEVdUkzCUwit-103" target="__xIO4FGyEVdUkzCUwit-107">
          <mxGeometry relative="1" as="geometry" />
        </mxCell>
        <mxCell id="__xIO4FGyEVdUkzCUwit-102" value="" style="edgeStyle=orthogonalEdgeStyle;orthogonalLoop=1;jettySize=auto;html=1;fontSize=12;endArrow=none;endFill=0;rounded=0;" edge="1" parent="PTd3_jpBzw9lg57d-37p-1" source="__xIO4FGyEVdUkzCUwit-103" target="__xIO4FGyEVdUkzCUwit-111">
          <mxGeometry relative="1" as="geometry" />
        </mxCell>
        <mxCell id="__xIO4FGyEVdUkzCUwit-103" value="Video Based" style="rounded=1;whiteSpace=wrap;html=1;" vertex="1" parent="PTd3_jpBzw9lg57d-37p-1">
          <mxGeometry x="1950" y="120" width="120" height="60" as="geometry" />
        </mxCell>
        <mxCell id="__xIO4FGyEVdUkzCUwit-104" value="&lt;u&gt;V_Id&lt;/u&gt;" style="ellipse;whiteSpace=wrap;html=1;rounded=1;" vertex="1" parent="PTd3_jpBzw9lg57d-37p-1">
          <mxGeometry x="2110" y="260" width="120" height="60" as="geometry" />
        </mxCell>
        <mxCell id="__xIO4FGyEVdUkzCUwit-105" value="V_Name" style="ellipse;whiteSpace=wrap;html=1;rounded=1;" vertex="1" parent="PTd3_jpBzw9lg57d-37p-1">
          <mxGeometry x="2110" y="-20" width="120" height="60" as="geometry" />
        </mxCell>
        <mxCell id="__xIO4FGyEVdUkzCUwit-106" value="V_Desc" style="ellipse;whiteSpace=wrap;html=1;rounded=1;" vertex="1" parent="PTd3_jpBzw9lg57d-37p-1">
          <mxGeometry x="1950" y="-20" width="120" height="60" as="geometry" />
        </mxCell>
        <mxCell id="__xIO4FGyEVdUkzCUwit-107" value="Url_For_Meet" style="ellipse;whiteSpace=wrap;html=1;rounded=1;" vertex="1" parent="PTd3_jpBzw9lg57d-37p-1">
          <mxGeometry x="1950" y="260" width="120" height="60" as="geometry" />
        </mxCell>
        <mxCell id="__xIO4FGyEVdUkzCUwit-108" value="" style="edgeStyle=orthogonalEdgeStyle;orthogonalLoop=1;jettySize=auto;html=1;fontSize=12;endArrow=none;endFill=0;entryX=0.434;entryY=1.047;entryDx=0;entryDy=0;entryPerimeter=0;rounded=0;" edge="1" parent="PTd3_jpBzw9lg57d-37p-1" source="__xIO4FGyEVdUkzCUwit-111" target="__xIO4FGyEVdUkzCUwit-112">
          <mxGeometry relative="1" as="geometry">
            <mxPoint x="2280" y="-50" as="targetPoint" />
          </mxGeometry>
        </mxCell>
        <mxCell id="__xIO4FGyEVdUkzCUwit-109" value="" style="edgeStyle=orthogonalEdgeStyle;orthogonalLoop=1;jettySize=auto;html=1;fontSize=12;endArrow=none;endFill=0;entryX=0.5;entryY=1;entryDx=0;entryDy=0;rounded=0;" edge="1" parent="PTd3_jpBzw9lg57d-37p-1" source="__xIO4FGyEVdUkzCUwit-111" target="__xIO4FGyEVdUkzCUwit-113">
          <mxGeometry relative="1" as="geometry">
            <mxPoint x="2410" y="-70" as="targetPoint" />
          </mxGeometry>
        </mxCell>
        <mxCell id="__xIO4FGyEVdUkzCUwit-110" value="" style="edgeStyle=orthogonalEdgeStyle;orthogonalLoop=1;jettySize=auto;html=1;fontSize=12;endArrow=none;endFill=0;entryX=0.5;entryY=1;entryDx=0;entryDy=0;rounded=0;" edge="1" parent="PTd3_jpBzw9lg57d-37p-1" source="__xIO4FGyEVdUkzCUwit-111" target="__xIO4FGyEVdUkzCUwit-114">
          <mxGeometry relative="1" as="geometry">
            <mxPoint x="2580" y="-70" as="targetPoint" />
          </mxGeometry>
        </mxCell>
        <mxCell id="__xIO4FGyEVdUkzCUwit-111" value="V_Status" style="ellipse;whiteSpace=wrap;html=1;rounded=1;" vertex="1" parent="PTd3_jpBzw9lg57d-37p-1">
          <mxGeometry x="2350" y="-20" width="120" height="60" as="geometry" />
        </mxCell>
        <mxCell id="__xIO4FGyEVdUkzCUwit-112" value="V_Active" style="ellipse;whiteSpace=wrap;html=1;rounded=1;dashed=1;" vertex="1" parent="PTd3_jpBzw9lg57d-37p-1">
          <mxGeometry x="2200" y="-140" width="120" height="60" as="geometry" />
        </mxCell>
        <mxCell id="__xIO4FGyEVdUkzCUwit-113" value="V_Inactive" style="ellipse;whiteSpace=wrap;html=1;rounded=1;dashed=1;" vertex="1" parent="PTd3_jpBzw9lg57d-37p-1">
          <mxGeometry x="2350" y="-140" width="120" height="60" as="geometry" />
        </mxCell>
        <mxCell id="__xIO4FGyEVdUkzCUwit-114" value="V_Scheduled" style="ellipse;whiteSpace=wrap;html=1;rounded=1;dashed=1;" vertex="1" parent="PTd3_jpBzw9lg57d-37p-1">
          <mxGeometry x="2520" y="-140" width="120" height="60" as="geometry" />
        </mxCell>
        <mxCell id="__xIO4FGyEVdUkzCUwit-119" style="edgeStyle=orthogonalEdgeStyle;rounded=0;orthogonalLoop=1;jettySize=auto;html=1;endArrow=none;endFill=0;" edge="1" parent="PTd3_jpBzw9lg57d-37p-1" source="__xIO4FGyEVdUkzCUwit-115" target="__xIO4FGyEVdUkzCUwit-117">
          <mxGeometry relative="1" as="geometry">
            <Array as="points">
              <mxPoint x="1320" y="50" />
            </Array>
          </mxGeometry>
        </mxCell>
        <mxCell id="__xIO4FGyEVdUkzCUwit-120" style="edgeStyle=orthogonalEdgeStyle;rounded=0;orthogonalLoop=1;jettySize=auto;html=1;entryX=0.5;entryY=1;entryDx=0;entryDy=0;endArrow=none;endFill=0;" edge="1" parent="PTd3_jpBzw9lg57d-37p-1" source="__xIO4FGyEVdUkzCUwit-115" target="__xIO4FGyEVdUkzCUwit-118">
          <mxGeometry relative="1" as="geometry">
            <Array as="points">
              <mxPoint x="1600" y="50" />
            </Array>
          </mxGeometry>
        </mxCell>
        <mxCell id="__xIO4FGyEVdUkzCUwit-115" value="O" style="ellipse;whiteSpace=wrap;html=1;aspect=fixed;rounded=0;" vertex="1" parent="PTd3_jpBzw9lg57d-37p-1">
          <mxGeometry x="1435" y="30" width="50" height="50" as="geometry" />
        </mxCell>
        <mxCell id="__xIO4FGyEVdUkzCUwit-124" style="edgeStyle=orthogonalEdgeStyle;rounded=0;orthogonalLoop=1;jettySize=auto;html=1;entryX=0.5;entryY=1;entryDx=0;entryDy=0;endArrow=none;endFill=0;" edge="1" parent="PTd3_jpBzw9lg57d-37p-1" source="__xIO4FGyEVdUkzCUwit-117" target="__xIO4FGyEVdUkzCUwit-123">
          <mxGeometry relative="1" as="geometry" />
        </mxCell>
        <mxCell id="__xIO4FGyEVdUkzCUwit-117" value="Active_participants" style="rounded=0;whiteSpace=wrap;html=1;" vertex="1" parent="PTd3_jpBzw9lg57d-37p-1">
          <mxGeometry x="1260" y="-80" width="120" height="60" as="geometry" />
        </mxCell>
        <mxCell id="__xIO4FGyEVdUkzCUwit-126" style="edgeStyle=orthogonalEdgeStyle;rounded=0;orthogonalLoop=1;jettySize=auto;html=1;entryX=0.5;entryY=1;entryDx=0;entryDy=0;endArrow=none;endFill=0;" edge="1" parent="PTd3_jpBzw9lg57d-37p-1" source="__xIO4FGyEVdUkzCUwit-118" target="__xIO4FGyEVdUkzCUwit-125">
          <mxGeometry relative="1" as="geometry" />
        </mxCell>
        <mxCell id="__xIO4FGyEVdUkzCUwit-118" value="Recurring_participants" style="rounded=0;whiteSpace=wrap;html=1;" vertex="1" parent="PTd3_jpBzw9lg57d-37p-1">
          <mxGeometry x="1530" y="-80" width="140" height="70" as="geometry" />
        </mxCell>
        <mxCell id="__xIO4FGyEVdUkzCUwit-123" value="&lt;u&gt;P_Id&lt;/u&gt;" style="ellipse;whiteSpace=wrap;html=1;rounded=0;" vertex="1" parent="PTd3_jpBzw9lg57d-37p-1">
          <mxGeometry x="1260" y="-200" width="120" height="60" as="geometry" />
        </mxCell>
        <mxCell id="__xIO4FGyEVdUkzCUwit-125" value="&lt;u&gt;P_Id&lt;/u&gt;" style="ellipse;whiteSpace=wrap;html=1;rounded=0;" vertex="1" parent="PTd3_jpBzw9lg57d-37p-1">
          <mxGeometry x="1540" y="-200" width="120" height="60" as="geometry" />
        </mxCell>
        <mxCell id="__xIO4FGyEVdUkzCUwit-129" style="edgeStyle=orthogonalEdgeStyle;rounded=0;orthogonalLoop=1;jettySize=auto;html=1;entryX=0;entryY=0.5;entryDx=0;entryDy=0;endArrow=none;endFill=0;" edge="1" parent="PTd3_jpBzw9lg57d-37p-1" source="__xIO4FGyEVdUkzCUwit-127" target="__xIO4FGyEVdUkzCUwit-103">
          <mxGeometry relative="1" as="geometry" />
        </mxCell>
        <mxCell id="__xIO4FGyEVdUkzCUwit-144" style="edgeStyle=orthogonalEdgeStyle;rounded=0;orthogonalLoop=1;jettySize=auto;html=1;entryX=0;entryY=0.5;entryDx=0;entryDy=0;endArrow=none;endFill=0;" edge="1" parent="PTd3_jpBzw9lg57d-37p-1" source="__xIO4FGyEVdUkzCUwit-127" target="__xIO4FGyEVdUkzCUwit-135">
          <mxGeometry relative="1" as="geometry">
            <Array as="points">
              <mxPoint x="1860" y="-400" />
            </Array>
          </mxGeometry>
        </mxCell>
        <mxCell id="__xIO4FGyEVdUkzCUwit-127" value="Attends" style="rhombus;whiteSpace=wrap;html=1;rounded=0;" vertex="1" parent="PTd3_jpBzw9lg57d-37p-1">
          <mxGeometry x="1820" y="110" width="80" height="80" as="geometry" />
        </mxCell>
        <mxCell id="__xIO4FGyEVdUkzCUwit-130" style="edgeStyle=orthogonalEdgeStyle;orthogonalLoop=1;jettySize=auto;html=1;entryX=0.5;entryY=1;entryDx=0;entryDy=0;endArrow=none;endFill=0;rounded=0;" edge="1" parent="PTd3_jpBzw9lg57d-37p-1" source="__xIO4FGyEVdUkzCUwit-135" target="__xIO4FGyEVdUkzCUwit-138">
          <mxGeometry relative="1" as="geometry" />
        </mxCell>
        <mxCell id="__xIO4FGyEVdUkzCUwit-131" style="edgeStyle=orthogonalEdgeStyle;orthogonalLoop=1;jettySize=auto;html=1;entryX=0.5;entryY=1;entryDx=0;entryDy=0;endArrow=none;endFill=0;rounded=0;" edge="1" parent="PTd3_jpBzw9lg57d-37p-1" source="__xIO4FGyEVdUkzCUwit-135" target="__xIO4FGyEVdUkzCUwit-137">
          <mxGeometry relative="1" as="geometry" />
        </mxCell>
        <mxCell id="__xIO4FGyEVdUkzCUwit-132" style="edgeStyle=orthogonalEdgeStyle;orthogonalLoop=1;jettySize=auto;html=1;entryX=0.5;entryY=0;entryDx=0;entryDy=0;endArrow=none;endFill=0;rounded=0;" edge="1" parent="PTd3_jpBzw9lg57d-37p-1" source="__xIO4FGyEVdUkzCUwit-135" target="__xIO4FGyEVdUkzCUwit-139">
          <mxGeometry relative="1" as="geometry" />
        </mxCell>
        <mxCell id="__xIO4FGyEVdUkzCUwit-133" style="edgeStyle=orthogonalEdgeStyle;orthogonalLoop=1;jettySize=auto;html=1;endArrow=none;endFill=0;rounded=0;" edge="1" parent="PTd3_jpBzw9lg57d-37p-1" source="__xIO4FGyEVdUkzCUwit-135" target="__xIO4FGyEVdUkzCUwit-136">
          <mxGeometry relative="1" as="geometry" />
        </mxCell>
        <mxCell id="__xIO4FGyEVdUkzCUwit-134" value="" style="edgeStyle=orthogonalEdgeStyle;orthogonalLoop=1;jettySize=auto;html=1;fontSize=12;endArrow=none;endFill=0;rounded=0;" edge="1" parent="PTd3_jpBzw9lg57d-37p-1" source="__xIO4FGyEVdUkzCUwit-135" target="__xIO4FGyEVdUkzCUwit-140">
          <mxGeometry relative="1" as="geometry" />
        </mxCell>
        <mxCell id="__xIO4FGyEVdUkzCUwit-135" value="Audio Based" style="rounded=1;whiteSpace=wrap;html=1;" vertex="1" parent="PTd3_jpBzw9lg57d-37p-1">
          <mxGeometry x="1920" y="-410" width="120" height="60" as="geometry" />
        </mxCell>
        <mxCell id="__xIO4FGyEVdUkzCUwit-136" value="&lt;u&gt;A_Id&lt;/u&gt;" style="ellipse;whiteSpace=wrap;html=1;rounded=1;" vertex="1" parent="PTd3_jpBzw9lg57d-37p-1">
          <mxGeometry x="2080" y="-280" width="120" height="60" as="geometry" />
        </mxCell>
        <mxCell id="__xIO4FGyEVdUkzCUwit-137" value="A_Name" style="ellipse;whiteSpace=wrap;html=1;rounded=1;" vertex="1" parent="PTd3_jpBzw9lg57d-37p-1">
          <mxGeometry x="2080" y="-560" width="120" height="60" as="geometry" />
        </mxCell>
        <mxCell id="__xIO4FGyEVdUkzCUwit-138" value="A_Desc" style="ellipse;whiteSpace=wrap;html=1;rounded=1;" vertex="1" parent="PTd3_jpBzw9lg57d-37p-1">
          <mxGeometry x="1920" y="-560" width="120" height="60" as="geometry" />
        </mxCell>
        <mxCell id="__xIO4FGyEVdUkzCUwit-139" value="Url_For_AMeet" style="ellipse;whiteSpace=wrap;html=1;rounded=1;" vertex="1" parent="PTd3_jpBzw9lg57d-37p-1">
          <mxGeometry x="1920" y="-280" width="120" height="60" as="geometry" />
        </mxCell>
        <mxCell id="__xIO4FGyEVdUkzCUwit-145" style="edgeStyle=orthogonalEdgeStyle;rounded=0;orthogonalLoop=1;jettySize=auto;html=1;entryX=0.5;entryY=0;entryDx=0;entryDy=0;endArrow=none;endFill=0;" edge="1" parent="PTd3_jpBzw9lg57d-37p-1" source="__xIO4FGyEVdUkzCUwit-140" target="__xIO4FGyEVdUkzCUwit-142">
          <mxGeometry relative="1" as="geometry">
            <Array as="points">
              <mxPoint x="2430" y="-350" />
              <mxPoint x="2290" y="-350" />
            </Array>
          </mxGeometry>
        </mxCell>
        <mxCell id="__xIO4FGyEVdUkzCUwit-146" style="edgeStyle=orthogonalEdgeStyle;rounded=0;orthogonalLoop=1;jettySize=auto;html=1;entryX=0.5;entryY=0;entryDx=0;entryDy=0;endArrow=none;endFill=0;" edge="1" parent="PTd3_jpBzw9lg57d-37p-1" source="__xIO4FGyEVdUkzCUwit-140" target="__xIO4FGyEVdUkzCUwit-141">
          <mxGeometry relative="1" as="geometry" />
        </mxCell>
        <mxCell id="__xIO4FGyEVdUkzCUwit-147" style="edgeStyle=orthogonalEdgeStyle;rounded=0;orthogonalLoop=1;jettySize=auto;html=1;endArrow=none;endFill=0;" edge="1" parent="PTd3_jpBzw9lg57d-37p-1" source="__xIO4FGyEVdUkzCUwit-140" target="__xIO4FGyEVdUkzCUwit-143">
          <mxGeometry relative="1" as="geometry">
            <Array as="points">
              <mxPoint x="2430" y="-350" />
              <mxPoint x="2580" y="-350" />
            </Array>
          </mxGeometry>
        </mxCell>
        <mxCell id="__xIO4FGyEVdUkzCUwit-140" value="A_Status" style="ellipse;whiteSpace=wrap;html=1;rounded=1;" vertex="1" parent="PTd3_jpBzw9lg57d-37p-1">
          <mxGeometry x="2370" y="-430" width="120" height="60" as="geometry" />
        </mxCell>
        <mxCell id="__xIO4FGyEVdUkzCUwit-141" value="A_Active" style="ellipse;whiteSpace=wrap;html=1;rounded=1;dashed=1;" vertex="1" parent="PTd3_jpBzw9lg57d-37p-1">
          <mxGeometry x="2370" y="-320" width="120" height="60" as="geometry" />
        </mxCell>
        <mxCell id="__xIO4FGyEVdUkzCUwit-142" value="&lt;span&gt;A_Inactive&lt;/span&gt;" style="ellipse;whiteSpace=wrap;html=1;rounded=1;dashed=1;" vertex="1" parent="PTd3_jpBzw9lg57d-37p-1">
          <mxGeometry x="2230" y="-320" width="120" height="60" as="geometry" />
        </mxCell>
        <mxCell id="__xIO4FGyEVdUkzCUwit-143" value="&lt;span&gt;A_Scheduled&lt;/span&gt;" style="ellipse;whiteSpace=wrap;html=1;rounded=1;dashed=1;" vertex="1" parent="PTd3_jpBzw9lg57d-37p-1">
          <mxGeometry x="2520" y="-320" width="120" height="60" as="geometry" />
        </mxCell>
        <mxCell id="__xIO4FGyEVdUkzCUwit-148" value="" style="shape=requiredInterface;html=1;verticalLabelPosition=bottom;sketch=0;rounded=0;rotation=90;" vertex="1" parent="PTd3_jpBzw9lg57d-37p-1">
          <mxGeometry x="1728.3899999999999" y="660" width="23.23" height="46.46" as="geometry" />
        </mxCell>
        <mxCell id="__xIO4FGyEVdUkzCUwit-149" value="" style="shape=requiredInterface;html=1;verticalLabelPosition=bottom;sketch=0;rounded=0;rotation=90;" vertex="1" parent="PTd3_jpBzw9lg57d-37p-1">
          <mxGeometry x="1938.3899999999999" y="654.84" width="23.23" height="46.46" as="geometry" />
        </mxCell>
        <mxCell id="__xIO4FGyEVdUkzCUwit-150" value="" style="shape=requiredInterface;html=1;verticalLabelPosition=bottom;sketch=0;rounded=0;rotation=-90;" vertex="1" parent="PTd3_jpBzw9lg57d-37p-1">
          <mxGeometry x="1308.39" y="-6.459999999999997" width="23.23" height="46.46" as="geometry" />
        </mxCell>
        <mxCell id="__xIO4FGyEVdUkzCUwit-154" value="" style="shape=requiredInterface;html=1;verticalLabelPosition=bottom;sketch=0;rounded=0;rotation=-90;" vertex="1" parent="PTd3_jpBzw9lg57d-37p-1">
          <mxGeometry x="1588.3899999999999" y="3.552713678800501e-15" width="23.23" height="46.46" as="geometry" />
        </mxCell>
        <mxCell id="__xIO4FGyEVdUkzCUwit-160" style="edgeStyle=orthogonalEdgeStyle;rounded=0;orthogonalLoop=1;jettySize=auto;html=1;entryX=0.5;entryY=1;entryDx=0;entryDy=0;endArrow=none;endFill=0;" edge="1" parent="PTd3_jpBzw9lg57d-37p-1" source="__xIO4FGyEVdUkzCUwit-158" target="__xIO4FGyEVdUkzCUwit-103">
          <mxGeometry relative="1" as="geometry" />
        </mxCell>
        <mxCell id="__xIO4FGyEVdUkzCUwit-161" style="edgeStyle=orthogonalEdgeStyle;rounded=0;orthogonalLoop=1;jettySize=auto;html=1;entryX=0;entryY=0.5;entryDx=0;entryDy=0;endArrow=none;endFill=0;" edge="1" parent="PTd3_jpBzw9lg57d-37p-1" source="__xIO4FGyEVdUkzCUwit-158" target="__xIO4FGyEVdUkzCUwit-135">
          <mxGeometry relative="1" as="geometry">
            <Array as="points">
              <mxPoint x="900" y="-370" />
              <mxPoint x="1920" y="-370" />
            </Array>
          </mxGeometry>
        </mxCell>
        <mxCell id="__xIO4FGyEVdUkzCUwit-158" value="Mode" style="rhombus;whiteSpace=wrap;html=1;rounded=0;" vertex="1" parent="PTd3_jpBzw9lg57d-37p-1">
          <mxGeometry x="860" y="200" width="80" height="80" as="geometry" />
        </mxCell>
      </root>
    </mxGraphModel>
  </diagram>
</mxfile>
